# xmcd
#
# Track frame offsets:
#	150
#	12442
#	22457
#	34270
#	45672
#	57795
#	71512
#	82145
#	95752
#	106535
#
# Disc length: 1573 seconds
#
# Revision: 2
# Processed by: cddbd v1.4PL0 Copyright (c) Steve Scherf et al.
# Submitted via: EasyCDDAExtractor 4.6.0.1
#
DISCID=8406230a
DTITLE=Various Artist - Classic Duets
DYEAR=1994
DGENRE=Country
TTITLE0=Willie Nelson and Shirley Collie - Willingly
TTITLE1=Jimmy Wakely and Margaret Whiting - Slipping Around
TTITLE2=Tennessee Ernie Ford and Kay Starr - I'll Never Be There
TTITLE3=Ferlin Husky and Jean Shepard - Dear John Letter, A
TTITLE4=George Jones and Melba Montgomery - We Must Have Been Out Of Our Minds
TTITLE5=Tennessee Ernie Ford and  Andra Willis - Baby
TTITLE6=Charlie Louvin and Melba Montgomery - Something To Brag About
TTITLE7=Kenny Rogers and Dottie West - Every Time Two Fools Collide
TTITLE8=Willie Nelson and Hank Cochran - Ain't Life Hell
TTITLE9=Glen Campbel and Bobbie Gentry - All I Have To Do Is Dream
EXTD=
EXTT0=
EXTT1=
EXTT2=
EXTT3=
EXTT4=
EXTT5=
EXTT6=
EXTT7=
EXTT8=
EXTT9=
PLAYORDER=
